<?xml version="1.0" encoding="UTF-8" standalone="no"?>
<!-- Created with Inkscape (http://www.inkscape.org/) -->

<svg
   width="743.47919mm"
   height="406.39999mm"
   viewBox="0 0 743.47919 406.39999"
   version="1.1"
   id="svg1"
   xml:space="preserve"
   inkscape:export-filename="logo.png"
   inkscape:export-xdpi="48.54"
   inkscape:export-ydpi="48.54"
   inkscape:version="1.4.3 (0d15f75, 2025-12-25)"
   sodipodi:docname="logo.svg"
   xmlns:inkscape="http://www.inkscape.org/namespaces/inkscape"
   xmlns:sodipodi="http://sodipodi.sourceforge.net/DTD/sodipodi-0.dtd"
   xmlns="http://www.w3.org/2000/svg"
   xmlns:svg="http://www.w3.org/2000/svg"><sodipodi:namedview
     id="namedview1"
     pagecolor="#ffffff"
     bordercolor="#666666"
     borderopacity="1.0"
     inkscape:showpageshadow="2"
     inkscape:pageopacity="0.0"
     inkscape:pagecheckerboard="0"
     inkscape:deskcolor="#d1d1d1"
     inkscape:document-units="mm"
     inkscape:export-bgcolor="#ffffffff"
     inkscape:zoom="0.34488568"
     inkscape:cx="316.04676"
     inkscape:cy="1306.2299"
     inkscape:window-width="3440"
     inkscape:window-height="1334"
     inkscape:window-x="-11"
     inkscape:window-y="-11"
     inkscape:window-maximized="1"
     inkscape:current-layer="layer1" /><defs
     id="defs1"><rect
       x="-91.23676"
       y="481.8121"
       width="786.27635"
       height="809.85439"
       id="rect13192" /></defs><g
     inkscape:label="Layer 1"
     inkscape:groupmode="layer"
     id="layer1"
     transform="translate(266.70001,54.768745)"><g
       id="g13196"
       transform="translate(304.33823,-6.3618591)"><path
         style="fill:#003380;stroke-width:0.529167;paint-order:fill markers stroke"
         id="path13189"
         sodipodi:type="arc"
         sodipodi:cx="-199.29865"
         sodipodi:cy="147.43535"
         sodipodi:rx="145.24521"
         sodipodi:ry="145.24521"
         sodipodi:start="0"
         sodipodi:end="6.2829365"
         sodipodi:arc-type="slice"
         d="M -54.053436,147.43535 A 145.24521,145.24521 0 0 1 -199.28961,292.68056 145.24521,145.24521 0 0 1 -344.54385,147.45342 145.24521,145.24521 0 0 1 -199.32575,2.1901423 145.24521,145.24521 0 0 1 -54.053441,147.39921 l -145.245209,0.0361 z" /><path
         style="fill:#ffffff;stroke-width:0.456042;paint-order:fill markers stroke"
         id="path13189-7-7-3"
         sodipodi:type="arc"
         sodipodi:cx="-198.68219"
         sodipodi:cy="145.29008"
         sodipodi:rx="125.17397"
         sodipodi:ry="125.17397"
         sodipodi:start="0"
         sodipodi:end="6.2829365"
         sodipodi:arc-type="slice"
         d="M -73.508217,145.29008 A 125.17397,125.17397 0 0 1 -198.6744,270.46406 125.17397,125.17397 0 0 1 -323.85616,145.30566 125.17397,125.17397 0 0 1 -198.70555,20.116114 125.17397,125.17397 0 0 1 -73.508221,145.25894 l -125.173969,0.0311 z"
         transform="translate(-1e-5)" /><path
         id="path13189-7"
         style="fill:#d5e5ff;stroke-width:0.456042;paint-order:fill markers stroke"
         d="m -93.849579,77.656764 a 125.17397,125.17397 0 0 1 9.18652,47.037956 l -125.173751,0.0315 h 125.173751 a 125.17397,125.17397 0 0 1 -1.897559,21.71444 l 13.321668,-0.003 A 125.17397,125.17397 0 0 0 -93.849579,77.656764 Z m 7.283793,68.811816 A 125.17397,125.17397 0 0 1 -209.82906,249.9 a 125.17397,125.17397 0 0 1 -104.57088,-56.36194 125.17397,125.17397 0 0 0 115.99499,78.1048 125.17397,125.17397 0 0 0 125.166,-125.17428 z" /><path
         style="fill:#003380;stroke:none;stroke-width:0.264583px;stroke-linecap:butt;stroke-linejoin:miter;stroke-opacity:1"
         d="m -103.6813,253.05704 c 0,0 0.0959,13.42533 3.45223,22.34358 3.356337,8.91826 9.397757,21.19286 9.397757,21.19286 0,0 2.30148,5.27426 -0.86307,8.63058 -3.16455,3.35634 -10.356687,1.82203 -10.356687,1.82203 0,0 -20.04211,-5.27426 -32.12492,-10.06901 -12.0828,-4.79478 -20.4257,-10.83617 -20.4257,-10.83617 0,0 -11.41156,-5.37014 -10.35669,-5.17835 1.05484,0.1918 56.9618,-36.91969 56.9618,-36.91969 z"
         id="path13190" /><path
         style="fill:#d5e5ff;stroke:none;stroke-width:0.264583px;stroke-linecap:butt;stroke-linejoin:miter;stroke-opacity:1"
         d="m -122.01892,241.59097 c 0,0 -3.73991,7.38394 1.05484,23.78205 4.79478,16.39808 6.90449,21.09695 6.90449,21.09695 0,0 -13.61715,-2.87685 -24.06973,-8.1511 -10.4526,-5.27423 -21.38466,-12.46638 -21.38466,-12.46638 l -2.68507,-4.41118 36.44022,-23.78205 z"
         id="path13191" /><text
         xml:space="preserve"
         transform="matrix(0.26458333,0,0,0.26458333,-279.51012,-35.067769)"
         id="text13192"
         style="font-size:280px;line-height:0.75;font-family:ArcadeClassic;-inkscape-font-specification:ArcadeClassic;text-align:center;letter-spacing:-14.94px;white-space:pre;shape-inside:url(#rect13192);fill:#003380"><tspan
           x="-11.268544"
           y="675.08559"
           id="tspan3">WI<tspan
   style="font-weight:bold;font-family:'Reem Kufi';-inkscape-font-specification:'Reem Kufi Bold'"
   id="tspan1">KI</tspan><tspan
   style="font-family:'Reem Kufi';-inkscape-font-specification:'Reem Kufi'"
   id="tspan2">
</tspan></tspan><tspan
           x="-54.528813"
           y="908.02535"
           id="tspan5"><tspan
             style="font-family:'Reem Kufi';-inkscape-font-specification:'Reem Kufi'"
             id="tspan4">CHAT</tspan></tspan></text></g></g></svg>
