<?xml version="1.0" encoding="UTF-8" standalone="no"?>
<!-- Created with Inkscape (http://www.inkscape.org/) -->

<svg
   width="11in"
   height="8.5in"
   viewBox="0 0 279.4 215.9"
   version="1.1"
   id="svg1"
   xml:space="preserve"
   inkscape:export-filename="logo.png"
   inkscape:export-xdpi="48.54"
   inkscape:export-ydpi="48.54"
   inkscape:version="1.4.3 (0d15f75, 2025-12-25)"
   sodipodi:docname="logo.svg"
   xmlns:inkscape="http://www.inkscape.org/namespaces/inkscape"
   xmlns:sodipodi="http://sodipodi.sourceforge.net/DTD/sodipodi-0.dtd"
   xmlns="http://www.w3.org/2000/svg"
   xmlns:svg="http://www.w3.org/2000/svg"><sodipodi:namedview
     id="namedview1"
     pagecolor="#ffffff"
     bordercolor="#666666"
     borderopacity="1.0"
     inkscape:showpageshadow="2"
     inkscape:pageopacity="0.0"
     inkscape:pagecheckerboard="0"
     inkscape:deskcolor="#d1d1d1"
     inkscape:document-units="mm"
     inkscape:export-bgcolor="#ffffffff"
     inkscape:zoom="1.3795427"
     inkscape:cx="515.38817"
     inkscape:cy="520.09988"
     inkscape:window-width="3440"
     inkscape:window-height="1334"
     inkscape:window-x="-11"
     inkscape:window-y="-11"
     inkscape:window-maximized="1"
     inkscape:current-layer="layer1" /><defs
     id="defs1" /><g
     inkscape:label="Layer 1"
     inkscape:groupmode="layer"
     id="layer1"><path
       style="fill:#003380;stroke-width:0.320261"
       d="m 147.81953,167.66792 c -1.39669,-0.15343 -2.45752,-0.43464 -3.35231,-0.88865 -0.96208,-0.48816 -0.9365,-0.47087 -1.71692,-1.16003 -1.09578,-0.96763 -1.95316,-2.48513 -2.2829,-4.04058 -0.23573,-1.112 -0.20608,-2.95658 0.0648,-4.02814 0.38572,-1.52608 0.9141,-2.44079 2.07955,-3.60002 0.59757,-0.59437 1.26389,-1.13906 1.59242,-1.30172 0.3107,-0.15383 0.59033,-0.31218 0.6214,-0.35189 0.0311,-0.0397 0.64117,-0.21344 1.35577,-0.38605 2.86413,-0.69183 5.29707,-0.30946 7.54892,1.18642 1.18397,0.78649 1.50634,1.10455 1.26126,1.24436 -0.0919,0.0524 -0.54844,0.45355 -1.01448,0.89136 -0.46605,0.43782 -0.92986,0.79748 -1.0307,0.79925 -0.10084,0.002 -0.32962,-0.16744 -0.50842,-0.37604 -0.68869,-0.80348 -2.2873,-1.42315 -3.6807,-1.42676 -0.91046,-0.002 -1.7255,0.19443 -2.57588,0.62195 -1.14421,0.57525 -1.74012,1.17079 -2.27288,2.27147 -0.41507,0.85753 -0.4662,1.05895 -0.52093,2.05215 -0.0714,1.29577 0.0586,2.01452 0.54803,3.02925 0.782,1.62143 2.2563,2.6562 4.0582,2.84833 1.78155,0.18997 3.07569,-0.14117 4.16344,-1.06531 0.0244,-0.0207 -0.0264,-0.12417 -0.11299,-0.22989 -0.14209,-0.1736 -0.13544,-0.17999 0.0686,-0.0661 0.19051,0.10635 0.2829,0.0712 0.58874,-0.22385 l 0.36278,-0.34999 0.993,0.88871 c 0.54614,0.48878 1.01841,0.90836 1.04948,0.93239 0.0311,0.024 -0.22822,0.30922 -0.57621,0.63376 -0.77338,0.72127 -2.19656,1.56238 -3.0555,1.80582 -0.52508,0.14882 -2.60626,0.43787 -2.80821,0.39003 -0.0311,-0.007 -0.41238,-0.0525 -0.84736,-0.10027 z m -66.442528,-0.53207 c -0.100153,-0.23304 -0.740481,-2.12687 -1.422912,-4.20855 -0.68243,-2.08168 -1.767709,-5.31552 -2.411729,-7.18632 -0.64402,-1.87081 -1.204984,-3.53709 -1.246592,-3.70286 l -0.07565,-0.3014 1.961856,0.031 1.961856,0.031 1.047102,3.16347 c 0.575907,1.73991 1.094175,3.17947 1.151709,3.19902 0.05754,0.0195 0.0766,0.10852 0.04238,0.19771 -0.03423,0.0892 -0.0029,0.16218 0.0695,0.16218 0.07246,0 0.103106,0.0463 0.06811,0.10294 -0.09932,0.16071 1.083412,3.63883 1.22171,3.59273 0.06704,-0.0223 0.194951,-0.29105 0.284242,-0.59711 0.08929,-0.30607 0.620141,-1.92921 1.179665,-3.60698 0.559524,-1.67777 1.253841,-3.76227 1.54292,-4.63222 l 0.525603,-1.58174 1.699191,-0.0311 c 1.320981,-0.0242 1.727456,0.003 1.826179,0.12191 0.06984,0.0842 0.891133,2.45858 1.825087,5.2765 0.933954,2.81791 1.72575,5.15113 1.759547,5.18493 0.0338,0.0338 0.103731,-0.007 0.155409,-0.0906 0.05168,-0.0836 0.871943,-2.48441 1.822802,-5.33508 l 1.728842,-5.18306 h 1.842941 c 1.01362,0 1.84294,0.0437 1.84294,0.0971 0,0.0534 -0.71704,2.20144 -1.59343,4.77345 -1.915269,5.62095 -2.417448,7.1055 -3.129703,9.25212 l -0.543569,1.63823 h -2.023 -2.023001 l -0.32638,-0.90385 c -0.179509,-0.49712 -0.369056,-1.00553 -0.421216,-1.12981 -0.138006,-0.32883 -1.734885,-5.32744 -2.156582,-6.75062 -0.197933,-0.668 -0.403741,-1.21455 -0.457353,-1.21455 -0.05361,0 -0.153558,0.13981 -0.222102,0.3107 -0.06855,0.17088 -0.168924,0.41238 -0.223066,0.53666 -0.109713,0.25184 -1.445323,4.22257 -2.356168,7.00483 -0.325489,0.99423 -0.639017,1.89667 -0.696729,2.00541 -0.0938,0.17674 -0.314115,0.19772 -2.07661,0.19772 h -1.971678 z m 22.436378,-7.4878 v -7.91148 l 1.83594,0.031 1.83594,0.031 0.029,7.88043 0.029,7.88043 h -1.86495 -1.86496 z m 7.44707,7.88603 c -0.0905,-0.29037 -0.13598,-15.53464 -0.0467,-15.67906 0.10956,-0.17727 3.6715,-0.14975 3.67298,0.0284 6.4e-4,0.0777 0.004,1.58913 0.007,3.35879 0.004,2.35847 0.0416,3.23973 0.14005,3.30058 0.14005,0.0865 0.35692,-0.1304 4.33761,-4.33865 l 2.21322,-2.33974 2.13976,-0.0329 c 1.17688,-0.0181 2.15841,-0.0141 2.18119,0.009 0.0228,0.0229 -1.06195,1.21158 -2.41052,2.64148 -1.34856,1.4299 -2.79727,2.97227 -3.21936,3.42749 l -0.76744,0.82768 0.25902,0.38982 c 0.56221,0.84612 2.37002,3.06612 2.49681,3.06612 0.074,0 0.13459,0.0763 0.13467,0.16948 8e-5,0.0932 0.53398,0.83017 1.18645,1.6377 1.95312,2.41728 2.70801,3.38525 2.70983,3.47469 9.6e-4,0.0466 -0.98846,0.0847 -2.19867,0.0847 h -2.2004 l -0.33037,-0.36719 c -0.1817,-0.20195 -0.84756,-1.02813 -1.47968,-1.83594 -2.66198,-3.40187 -3.08029,-3.90779 -3.19848,-3.86839 -0.0684,0.0228 -0.52994,0.48441 -1.02574,1.02584 l -0.90145,0.98442 -0.009,2.00238 -0.009,2.00239 -1.83594,0.031 c -1.00977,0.0171 -1.8403,0.0171 -1.84563,0 z m 16.4547,-0.0774 c -0.0449,-0.0727 -0.0956,-12.3743 -0.0641,-15.5733 0.001,-0.10701 0.43766,-0.14122 1.80242,-0.14122 0.99057,0 1.82751,0.0428 1.85987,0.0952 0.0474,0.0766 0.10585,11.6624 0.0752,14.90303 l -0.008,0.81912 h -1.80103 c -0.99056,0 -1.82963,-0.0463 -1.86458,-0.10284 z m 29.87714,-7.7776 -1.1e-4,-7.88043 0.98869,0.0248 c 0.54378,0.0136 1.23019,0.0264 1.52535,0.0283 l 0.53666,0.003 -3e-5,3.13523 -4e-5,3.13522 3.96775,-0.0273 3.96774,-0.0272 -0.0196,-3.10798 -0.0196,-3.10798 h 1.58794 1.58795 v 7.85537 7.85538 l -1.55349,-0.0314 -1.55349,-0.0314 -0.0169,-3.25574 c -0.009,-1.79066 -0.0425,-3.2813 -0.0737,-3.31253 -0.0312,-0.0312 -1.80306,-0.0657 -3.93739,-0.0765 l -3.8806,-0.0198 -0.0203,3.04984 c -0.0112,1.67741 -0.0239,3.18965 -0.0282,3.36054 l -0.008,0.3107 h -1.52524 -1.52525 z m 15.93044,7.7637 c 0,-0.0642 0.13,-0.37328 0.28889,-0.68683 0.15889,-0.31355 0.26938,-0.62861 0.24554,-0.70012 -0.0238,-0.0715 0.0445,-0.20731 0.15195,-0.30176 0.10741,-0.0944 0.38444,-0.60388 0.61561,-1.13206 0.23118,-0.52819 0.57239,-1.29081 0.75825,-1.69472 0.18585,-0.40391 0.75984,-1.67495 1.27551,-2.82453 1.73646,-3.87108 2.51464,-5.58881 2.85876,-6.31038 0.18829,-0.3948 0.31189,-0.79716 0.27468,-0.89414 -0.0498,-0.12981 -0.0253,-0.15081 0.0928,-0.0796 0.12866,0.0776 0.12687,0.0547 -0.009,-0.1156 -0.15208,-0.19051 -0.15084,-0.20534 0.012,-0.14445 0.12871,0.0481 0.2349,-0.0442 0.36536,-0.31779 l 0.1839,-0.38565 1.15988,-0.0177 c 1.34643,-0.0205 1.9071,-0.009 1.9489,0.0395 0.0164,0.019 0.51462,1.0769 1.10718,2.35077 0.59255,1.27386 1.3291,2.84995 1.63679,3.50241 0.30768,0.65247 1.00555,2.15229 1.55083,3.33295 0.54528,1.18065 1.46373,3.12533 2.04099,4.32152 l 1.04958,2.17489 h -1.69277 -1.69277 l -0.39378,-0.8641 c -0.21657,-0.47525 -0.59644,-1.28871 -0.84414,-1.80769 l -0.45037,-0.94361 h -3.8808 c -2.96967,0 -3.90706,0.0332 -3.99265,0.14123 -0.0615,0.0777 -0.43179,0.89114 -0.82284,1.8077 l -0.71099,1.66647 h -1.56357 c -1.00061,0 -1.56359,-0.042 -1.56359,-0.11674 z m 11.26838,-6.54344 c -0.12995,-0.30755 -0.28595,-0.52849 -0.34668,-0.49096 -0.0633,0.0391 -0.0742,0.01 -0.0255,-0.0691 0.0467,-0.0755 -0.0244,-0.40116 -0.15807,-0.72359 -0.2669,-0.64402 -0.25869,-0.6254 -0.88171,-1.9985 -0.23965,-0.52819 -0.58019,-1.30352 -0.75674,-1.72297 -0.17656,-0.41944 -0.37694,-0.76175 -0.44529,-0.76069 -0.0684,9.6e-4 -0.2468,0.2934 -0.39655,0.64964 -0.14975,0.35624 -0.39809,0.92734 -0.55186,1.26911 -0.81497,1.8113 -1.80504,4.24375 -1.75819,4.31956 0.0295,0.0477 1.29183,0.0867 2.80523,0.0867 h 2.75164 z m 10.31102,0.10728 v -6.5529 l -1.72297,-0.0143 c -0.94763,-0.008 -1.82464,-0.0256 -1.94892,-0.0394 -0.12428,-0.0138 -0.49448,-0.0328 -0.82265,-0.0422 l -0.5967,-0.017 0.0154,-1.17061 c 0.008,-0.64383 0.0482,-1.2158 0.0883,-1.27104 0.0411,-0.0566 2.97,-0.10042 6.71384,-0.10042 h 6.64098 l -0.0316,1.29928 -0.0316,1.29929 -2.58122,0.0304 -2.58122,0.0304 0.0634,4.7713 c 0.0349,2.62422 0.0318,5.57206 -0.007,6.55076 l -0.0702,1.77945 h -1.56407 -1.56407 z m -106.636344,0 c 0,-0.15535 0.02564,-0.2189 0.05699,-0.14123 0.03134,0.0777 0.03134,0.20478 0,0.28246 -0.03134,0.0777 -0.05699,0.0141 -0.05699,-0.14123 z m 88.415784,-2.32788 c -0.0453,-0.0453 -0.0792,-0.21372 -0.0752,-0.37425 l 0.007,-0.29187 0.10904,0.27277 c 0.11751,0.29395 0.0932,0.52751 -0.041,0.39335 z m -83.114591,-0.22361 c 0.0054,-0.13162 0.03219,-0.15839 0.06826,-0.0683 0.03264,0.0816 0.02862,0.179 -0.0089,0.21655 -0.03754,0.0375 -0.06424,-0.0292 -0.05934,-0.14829 z m 84.807161,-3.43651 c 0.12846,0 -0.013,-0.22596 0.0433,-0.22596 0.0563,0 0.1024,0.10168 0.1024,0.22596 0,0.12428 -0.0195,0.22596 -0.0433,0.22596 -0.0238,0 -0.23087,-0.22596 -0.10241,-0.22596 z M 81.1262,152.92847 c 0.186435,0 0.02762,-0.249 0.05627,-0.13907 0.02864,0.10992 0.02676,0.26245 -0.0042,0.33894 -0.03095,0.0765 -0.238564,-0.19987 -0.05208,-0.19987 z m 98.554,-0.16947 c 0.14022,0 -0.0517,-0.26841 -0.0206,-0.29948 0.0311,-0.0311 0.0912,0.0528 0.13361,0.1865 0.0424,0.13364 0.0517,0.26841 0.0206,0.29948 -0.0311,0.0311 -0.27379,-0.1865 -0.13362,-0.1865 z m 0.46692,-12.10323 c -1.42223,-0.54556 -3.89659,-1.45712 -6.43993,-2.37248 -1.78247,-0.64153 -2.84357,-1.03628 -3.33294,-1.23995 -0.12428,-0.0517 -0.8869,-0.32964 -1.69471,-0.6176 -0.80782,-0.28795 -2.17851,-0.80363 -3.04598,-1.14595 -2.25481,-0.88978 -4.01312,-1.51602 -4.44407,-1.58281 -0.23891,-0.037 -0.44123,0.002 -0.5649,0.10993 -0.20839,0.18129 -1.15536,0.63598 -3.49016,1.67584 -5.37596,2.39428 -12.91128,3.90172 -18.84682,3.7703 -1.88087,-0.0417 -5.65365,-0.38642 -6.62681,-0.60558 -0.27005,-0.0608 -0.97399,-0.1951 -1.56432,-0.2984 -3.49107,-0.61092 -6.91589,-1.65825 -10.1683,-3.10951 -3.52982,-1.57504 -6.40845,-3.30931 -10.22479,-6.16009 -1.22512,-0.91515 -3.9636,-3.361 -4.94748,-4.4188 -2.43478,-2.61771 -4.821732,-5.7842 -6.764832,-8.97411 -1.489746,-2.44565 -3.501062,-6.79019 -4.203772,-9.08034 -0.710418,-2.31528 -1.323065,-4.93722 -1.81551,-7.769845 -0.432284,-2.48655 -0.641311,-7.646627 -0.413788,-10.214827 0.584229,-6.5946 1.976106,-11.78146 4.678595,-17.43491 1.164975,-2.43706 2.954965,-5.32625 4.935577,-7.96641 2.2647,-3.01887 5.37345,-6.18909 8.23491,-8.397757 0.34938,-0.26968 0.86403,-0.6777 1.14365,-0.9067 1.09343,-0.895505 5.74721,-3.801362 7.11782,-4.444432 2.11658,-0.99307 2.89977,-1.32891 4.46275,-1.91365 3.09363,-1.15739 5.31618,-1.75219 8.75604,-2.3433 3.43561,-0.59038 3.99664,-0.63495 7.96517,-0.63274 3.18329,0.002 4.00918,0.0386 5.64905,0.25174 6.73928,0.876 12.64881,2.89313 18.19884,6.211887 3.24635,1.94123 5.44112,3.546495 7.65181,5.596552 0.61893,0.57396 1.25087,1.14525 1.4043,1.26953 0.15343,0.12428 0.81975,0.81064 1.48072,1.52524 0.66097,0.71461 1.24047,1.28658 1.28778,1.27104 0.0473,-0.0155 0.0733,0.0156 0.0578,0.0692 -0.0155,0.0536 0.20016,0.36967 0.47933,0.70242 2.17152,2.58834 4.06454,5.41358 5.70949,8.52112 1.26396,2.38781 1.57646,3.08412 2.33242,5.19713 1.4781,4.13151 1.88161,5.78666 2.74061,11.24162 0.41057,2.60727 0.41446,7.724827 0.008,10.902677 -0.21111,1.65167 -0.94889,5.491215 -1.28294,6.676645 -0.62652,2.22326 -0.97782,3.27681 -1.87782,5.63157 -0.45773,1.19762 -2.21882,4.71481 -3.05819,6.1077 -0.74497,1.23626 -2.01913,3.15852 -2.88719,4.35576 l -0.45487,0.62737 0.46683,1.85821 c 0.25675,1.02202 0.54401,2.101 0.63834,2.39775 0.27615,0.86864 2.95039,11.1611 3.20633,12.34031 0.0539,0.24856 0.27466,1.07155 0.49047,1.82887 0.45736,1.60493 0.50563,1.86671 0.3525,1.91169 -0.0621,0.0183 -0.64682,-0.17159 -1.29928,-0.42187 z m -36.94483,-7.67058 c 0.65247,-0.0654 1.77098,-0.22433 2.48559,-0.35307 0.7146,-0.12874 1.65904,-0.29908 2.09875,-0.37854 1.56656,-0.28308 5.64056,-1.62556 7.44815,-2.45433 2.64796,-1.21408 3.40213,-1.58607 3.74908,-1.84925 0.19781,-0.15004 0.38757,-0.27281 0.4217,-0.27281 0.16935,0 2.58526,-1.55131 3.51048,-2.25417 0.37204,-0.28263 0.81443,-0.61555 0.98308,-0.73983 1.96711,-1.44953 4.77134,-4.14085 6.58811,-6.32282 0.24856,-0.29853 0.52481,-0.61794 0.6139,-0.7098 0.35923,-0.37044 1.70051,-2.24129 1.70133,-2.37305 6.4e-4,-0.0777 0.0472,-0.14123 0.10374,-0.14123 0.1321,0 0.9257,-1.25626 1.4711,-2.32874 0.23302,-0.45821 0.45072,-0.80605 0.48379,-0.77299 0.0811,0.0811 1.77775,-3.35237 2.32325,-4.70148 0.24036,-0.59445 0.57805,-1.53502 0.75042,-2.09015 0.17237,-0.55512 0.38779,-1.2381 0.4787,-1.51773 0.6561,-2.01807 1.25117,-5.263735 1.5743,-8.586575 0.31935,-3.283967 0.12396,-6.710107 -0.63702,-11.170297 -0.13114,-0.7686 -0.33607,-1.70308 -0.45541,-2.07663 -0.11933,-0.37355 -0.21697,-0.74696 -0.21697,-0.8298 0,-0.23454 -1.17384,-3.7144 -1.63522,-4.8476 -0.59689,-1.46605 -2.03001,-4.39725 -2.56859,-5.25362 -2.15749,-3.43054 -3.37473,-5.04127 -5.5924,-7.40027 -1.14052,-1.2132 -3.1483,-3.10258 -4.00635,-3.7701 -0.29001,-0.22561 -0.92553,-0.72004 -1.41227,-1.09874 -0.48674,-0.3787 -1.44423,-1.03481 -2.12777,-1.45803 -0.68354,-0.42322 -1.67678,-1.03818 -2.2072,-1.36657 -2.98843,-1.850167 -8.15424,-3.760742 -12.14503,-4.491802 -3.40525,-0.62381 -4.14643,-0.68543 -8.24399,-0.68543 -3.01706,0 -4.13751,0.0416 -5.22146,0.19379 -3.70206,0.51983 -6.12756,1.11866 -9.32091,2.30123 -1.40333,0.51969 -4.9448,2.200465 -5.66203,2.687192 -0.23499,0.15946 -0.7321,0.44859 -1.10468,0.6425 -0.96492,0.50219 -3.55116,2.34533 -5.07321,3.61554 -2.35029,1.96141 -5.03959,4.81733 -6.90105,7.32862 -0.44848,0.60504 -1.7973,2.58281 -1.7973,2.63537 0,0.0256 -0.33804,0.62511 -0.7512,1.33223 -0.65475,1.12061 -0.94742,1.69949 -1.68118,3.32533 -0.0856,0.18971 -0.31541,0.69813 -0.51065,1.12981 -1.012142,2.23789 -2.169267,6.27283 -2.655111,9.25846 -0.791636,4.86477 -0.803176,8.236817 -0.04524,13.218787 0.350025,2.300735 0.646254,3.518375 1.649159,6.778865 1.004532,3.26575 3.695142,8.3478 6.071332,11.46758 2.03659,2.67392 3.61866,4.37604 5.94454,6.39566 5.49134,4.76824 12.43421,8.17941 19.26597,9.46575 1.03772,0.19539 4.29985,0.61133 5.30743,0.67673 1.12289,0.0729 5.67964,-0.0307 6.94834,-0.15799 z m -5.87865,-4.21426 c -0.0291,-0.0262 -0.5944,-0.0778 -1.25629,-0.11465 -1.45202,-0.0808 -3.14647,-0.33847 -4.67159,-0.71025 -2.3679,-0.57723 -3.85353,-0.96012 -4.1803,-1.07737 -0.67497,-0.24221 -1.58667,-0.57946 -1.8077,-0.66869 -7.2236,-2.91643 -12.99843,-7.57146 -17.21114,-13.8737 -0.97602,-1.46012 -2.01997,-3.24035 -2.49303,-4.2513 -0.71623,-1.53063 -0.96894,-2.12478 -1.51371,-3.5589 -0.41757,-1.09929 -0.81139,-2.45594 -1.1971,-4.12381 -0.60078,-2.597965 -0.70218,-3.245845 -0.92612,-5.917555 -0.23563,-2.811287 0.0644,-7.394317 0.64433,-9.843317 1.05184,-4.44157 1.5042,-5.84485 2.64958,-8.21938 0.42713,-0.88548 0.79996,-1.60998 0.82851,-1.60998 0.0285,0 0.0429,0.37665 0.0319,0.83699 -0.011,0.46035 0.0141,0.87152 0.0558,0.91373 0.0417,0.0422 0.24505,0.11717 0.45193,0.16659 0.20687,0.0494 0.78287,0.20131 1.27998,0.33753 0.49712,0.13622 1.17704,0.31897 1.51092,0.40612 0.33389,0.0872 0.66638,0.23956 0.73885,0.33868 0.11749,0.16067 0.47159,1.22381 1.84201,5.53044 0.21751,0.68353 0.79117,2.46299 1.2748,3.95434 0.48363,1.49135 1.22138,3.77922 1.63945,5.08415 0.41807,1.304927 1.18023,3.643637 1.69369,5.197127 0.51346,1.55349 1.40381,4.273515 1.97855,6.044495 0.57474,1.77098 1.39627,4.26221 1.82562,5.53607 0.42935,1.27386 1.03777,3.09216 1.35205,4.04065 l 0.57141,1.72453 3.56841,-0.0298 3.56842,-0.0298 0.77349,-2.3726 c 0.42542,-1.30493 1.30768,-3.97411 1.96059,-5.93151 0.65291,-1.9574 1.52107,-4.60116 1.92925,-5.87502 0.40818,-1.273865 0.83733,-2.544905 0.95367,-2.824535 0.11634,-0.27963 0.49049,-1.39814 0.83143,-2.48558 1.24931,-3.984587 2.7442,-8.417087 2.83873,-8.417087 0.0534,0 0.21598,0.40673 0.36127,0.90385 0.14528,0.49711 0.56067,1.81899 0.92308,2.9375 0.36241,1.11852 0.79407,2.465817 0.95924,2.993997 0.93127,2.97795 5.19565,15.904925 6.75528,20.477835 l 0.22157,0.64964 h 3.54408 3.54408 l 0.68786,-2.17489 c 0.37833,-1.19618 0.76087,-2.35283 0.8501,-2.57031 0.0892,-0.21749 0.39521,-1.13264 0.67996,-2.03366 0.64427,-2.03862 3.68716,-11.355475 5.01836,-15.365442 0.54666,-1.6467 1.35829,-4.13793 1.80363,-5.53607 1.64224,-5.15581 3.02216,-9.25369 3.18021,-9.44414 0.0679,-0.0818 0.38609,-0.22064 0.70712,-0.30853 0.32103,-0.0879 1.17929,-0.32819 1.90725,-0.534 l 1.32355,-0.37419 0.0322,-1.02476 0.0322,-1.02476 0.26094,0.56491 c 0.14352,0.3107 0.41334,0.86995 0.59961,1.24279 0.18626,0.37284 0.46652,1.00836 0.6228,1.41227 0.15627,0.4039 0.32782,0.83606 0.38121,0.96034 0.29514,0.68692 0.85337,2.59436 1.25447,4.28646 0.2513,1.06012 0.50022,2.10544 0.55317,2.32293 0.60023,2.46579 0.71771,8.319767 0.23694,11.807277 -0.23431,1.69972 -1.02511,5.070655 -1.53709,6.552155 -1.65176,4.77959 -4.51339,9.58424 -7.86582,13.20667 -1.70205,1.83914 -4.65116,4.37454 -6.54755,5.62905 -3.5381,2.34054 -7.49012,4.0892 -11.41764,5.052 -1.2654,0.3102 -2.42783,0.5862 -2.58318,0.61333 -0.38401,0.067 -1.00242,0.17326 -1.41227,0.24255 -1.36745,0.23119 -6.44869,0.50674 -6.61302,0.35862 z m -9.81053,-28.4127 c -0.20913,-0.726965 -0.573,-1.982695 -0.80861,-2.790505 -0.2356,-0.80782 -0.89444,-3.07026 -1.46409,-5.027657 -0.56965,-1.9574 -1.17864,-4.01648 -1.35331,-4.57574 -0.17467,-0.55925 -0.48375,-1.6015 -0.68686,-2.31611 -0.2031,-0.71461 -0.54487,-1.88396 -0.75948,-2.59857 -0.51687,-1.721 -1.49575,-5.32393 -1.49575,-5.50533 0,-0.079 0.12779,-0.14372 0.28398,-0.14372 0.1562,0 0.37227,-0.0478 0.48017,-0.10614 0.1079,-0.0584 0.80629,-0.21727 1.55196,-0.35308 0.74568,-0.13582 1.5083,-0.28194 1.69472,-0.32472 l 0.33894,-0.0778 v -2.01958 -2.01957 l -8.77486,-0.007 c -4.82617,-0.004 -8.81065,-0.0427 -8.8544,-0.0864 -0.0438,-0.0437 0.16254,-0.41878 0.45841,-0.83341 0.29587,-0.41462 0.69602,-0.99049 0.88923,-1.2797 1.03214,-1.54502 4.99545,-5.82297 6.25529,-6.7519 0.23262,-0.17151 0.6263,-0.49309 0.87486,-0.71462 0.94638,-0.84348 5.63624,-3.79647 6.6094,-4.16164 0.15534,-0.0583 0.68918,-0.29456 1.1863,-0.52505 2.06948,-0.95951 4.09148,-1.60186 7.23079,-2.2971 2.98043,-0.660047 3.92088,-0.756137 7.40027,-0.756137 3.55579,0 5.40782,0.17208 7.96516,0.740057 2.91498,0.64741 5.0033,1.3528 8.07815,2.72859 1.70228,0.76166 4.69192,2.60248 6.72238,4.13921 2.80767,2.12494 5.70154,5.19556 7.88883,8.37066 0.1755,0.25476 0.37275,0.43003 0.43833,0.3895 0.0687,-0.0424 0.0959,-0.007 0.0642,0.0832 -0.0303,0.0863 0.0456,0.30068 0.16871,0.47636 0.14526,0.20737 0.18512,0.35802 0.11364,0.4295 -0.0698,0.0698 -2.57743,0.0976 -6.84929,0.076 l -6.73919,-0.0341 4e-5,2.00896 c 3e-5,1.50888 0.0352,2.01967 0.14127,2.05198 0.0777,0.0237 0.77675,0.17821 1.55349,0.34345 0.77674,0.16523 1.68375,0.378 2.01558,0.47282 l 0.60331,0.17239 -0.0483,0.52569 c -0.0266,0.28913 -0.21427,1.03411 -0.41716,1.6555 -0.2029,0.6214 -0.45969,1.46028 -0.57065,1.86419 -0.1884,0.68579 -1.2695,4.23724 -2.44187,8.02166 -1.11334,3.593827 -2.12075,6.903937 -2.49293,8.191127 -0.2156,0.74567 -0.54101,1.85907 -0.72314,2.474215 -0.18212,0.61515 -0.33113,1.18711 -0.33113,1.27104 0,0.0839 -0.0472,0.1526 -0.10492,0.1526 -0.11759,0 -1.16863,-3.292655 -1.87537,-5.875025 -0.14769,-0.53965 -1.61983,-5.503337 -2.27856,-7.682717 -0.995,-3.29193 -1.77283,-5.93535 -2.12766,-7.23079 -0.21276,-0.77674 -0.48937,-1.74273 -0.61469,-2.14664 -0.34528,-1.11276 -0.31719,-1.32389 0.19408,-1.45914 0.37488,-0.0992 1.95931,-0.42162 3.24821,-0.66105 l 0.45192,-0.084 v -2.03315 -2.03316 h -9.82935 -9.82936 l -0.0309,2.00796 c -0.0238,1.54953 0.002,2.01767 0.11298,2.05052 0.0791,0.0234 0.88104,0.20283 1.78207,0.3987 2.55173,0.55471 2.31108,0.45373 2.35027,0.98626 0.032,0.4343 -0.14293,1.11081 -1.17765,4.55539 -0.15867,0.52819 -0.38347,1.23997 -0.49956,1.58173 -0.11609,0.34177 -0.44556,1.38402 -0.73215,2.31612 -0.28659,0.93209 -0.79649,2.55902 -1.13311,3.61539 -2.04827,6.427867 -2.57944,8.122097 -2.81601,8.981997 -0.37341,1.357295 -0.74529,2.528405 -0.8323,2.621035 -0.0408,0.0434 -0.24528,-0.51583 -0.45441,-1.24279 z m 29.5482,-52.295071 c -0.0414,-0.0414 -0.0753,-0.12786 -0.0753,-0.19207 0,-0.0708 0.0526,-0.0641 0.13369,0.017 0.0735,0.0735 0.10743,0.15996 0.0753,0.19207 -0.0321,0.0321 -0.0923,0.0245 -0.13369,-0.017 z"
       id="path1"
       sodipodi:nodetypes="cssscssssssscscssscsscsscsssscccsssscccscssscssscscsssscsssscccssssssssscsccccccccccssscscscsscsssssscssssccccccccscccsccccccccccccccccccccscccccccccssssssssscsscsssssscccsscssscsccssccsscsssscscccscccsscccccccccccsssscccscccscccssssssssssssssssscssssscscssssssssssssssssccsssssssssscsssscsscsccccsssssscsscssssssssssssssssssscsssssssssssssssscscsscssssscsssssscsssssssscccsssscssssscccsssssssscccssscscssssscssscssssssscsscccccsssssssssssscscsscssssccsssssssssssscccccccsscsssssscccsssc" /></g></svg>
